<svg width="94" height="8" viewBox="0 0 94 8" fill="none" xmlns="http://www.w3.org/2000/svg">
<path d="M12 7.766C14.2091 7.766 16 6.02752 16 3.883C16 1.73848 14.2091 0 12 0C9.79086 0 8 1.73848 8 3.883C8 6.02752 9.79086 7.766 12 7.766Z" fill="#CBE346"/>
<path d="M38 7.766C40.2091 7.766 42 6.02752 42 3.883C42 1.73848 40.2091 0 38 0C35.7909 0 34 1.73848 34 3.883C34 6.02752 35.7909 7.766 38 7.766Z" fill="#EBEBEB"/>
<path d="M64 7.766C66.2091 7.766 68 6.02752 68 3.883C68 1.73848 66.2091 0 64 0C61.7909 0 60 1.73848 60 3.883C60 6.02752 61.7909 7.766 64 7.766Z" fill="#EBEBEB"/>
<path d="M90 7.766C92.2091 7.766 94 6.02752 94 3.883C94 1.73848 92.2091 0 90 0C87.7909 0 86 1.73848 86 3.883C86 6.02752 87.7909 7.766 90 7.766Z" fill="#EBEBEB"/>
</svg>
